<svg width="63" height="64" viewBox="0 0 63 64" fill="none" xmlns="http://www.w3.org/2000/svg">
<rect x="1.2207" y="1.22083" width="60" height="60" rx="30" fill="url(#paint0_linear_3_282)"/>
<g filter="url(#filter0_f_3_282)">
<rect x="2" y="2" width="58.4416" height="58.4416" rx="29.2208" fill="url(#paint1_linear_3_282)"/>
<rect x="2.25" y="2.25" width="57.9416" height="57.9416" rx="28.9708" stroke="url(#paint2_linear_3_282)" stroke-width="0.5"/>
</g>
<g filter="url(#filter1_f_3_282)">
<path d="M34.7634 27.0163V22.2615C34.7634 20.115 35.2878 19.0292 38.972 19.0292H43.5946V11.0422H35.8811C26.429 11.0422 23.3105 14.9609 23.3105 21.6874V27.0163H17.1011V35.0033H23.3105V58.9643H34.7634V35.0033H42.5459L43.5946 27.0163H34.7634Z" fill="#13488C" fill-opacity="0.5"/>
</g>
<mask id="path-5-inside-1_3_282" fill="white">
<path fill-rule="evenodd" clip-rule="evenodd" d="M36.8414 22.0296V27.0163H45.1531L44.1661 35.3929H36.8414V60.5228H36.8354V60.6958C33.9936 61.455 28.3477 61.2874 26.0603 60.7789V59.6727H26.0622V35.3929H20.218V27.0163H26.0622V21.4275C26.0622 14.3728 28.9972 10.2631 37.8933 10.2631H45.1531V18.6397H40.8024C37.3349 18.6397 36.8414 19.7784 36.8414 22.0296Z"/>
</mask>
<path fill-rule="evenodd" clip-rule="evenodd" d="M36.8414 22.0296V27.0163H45.1531L44.1661 35.3929H36.8414V60.5228H36.8354V60.6958C33.9936 61.455 28.3477 61.2874 26.0603 60.7789V59.6727H26.0622V35.3929H20.218V27.0163H26.0622V21.4275C26.0622 14.3728 28.9972 10.2631 37.8933 10.2631H45.1531V18.6397H40.8024C37.3349 18.6397 36.8414 19.7784 36.8414 22.0296Z" fill="white" fill-opacity="0.9"/>
<path d="M36.8414 27.0163H36.3414V27.5163H36.8414V27.0163ZM45.1531 27.0163L45.6496 27.0748L45.7155 26.5163H45.1531V27.0163ZM44.1661 35.3929V35.8929H44.6106L44.6626 35.4514L44.1661 35.3929ZM36.8414 35.3929V34.8929H36.3414V35.3929H36.8414ZM36.8414 60.5228V61.0228H37.3414V60.5228H36.8414ZM36.8354 60.5228V60.0228H36.3354V60.5228H36.8354ZM36.8354 60.6958L36.9645 61.1789L37.3354 61.0798V60.6958H36.8354ZM26.0603 60.7789H25.5603V61.18L25.9518 61.267L26.0603 60.7789ZM26.0603 59.6727V59.1727H25.5603V59.6727H26.0603ZM26.0622 59.6727V60.1727H26.5622V59.6727H26.0622ZM26.0622 35.3929H26.5622V34.8929H26.0622V35.3929ZM20.218 35.3929H19.718V35.8929H20.218V35.3929ZM20.218 27.0163V26.5163H19.718V27.0163H20.218ZM26.0622 27.0163V27.5163H26.5622V27.0163H26.0622ZM45.1531 10.2631H45.6531V9.76306H45.1531V10.2631ZM45.1531 18.6397V19.1397H45.6531V18.6397H45.1531ZM37.3414 27.0163V22.0296H36.3414V27.0163H37.3414ZM45.1531 26.5163H36.8414V27.5163H45.1531V26.5163ZM44.6626 35.4514L45.6496 27.0748L44.6565 26.9578L43.6695 35.3344L44.6626 35.4514ZM36.8414 35.8929H44.1661V34.8929H36.8414V35.8929ZM37.3414 60.5228V35.3929H36.3414V60.5228H37.3414ZM36.8354 61.0228H36.8414V60.0228H36.8354V61.0228ZM36.3354 60.5228V60.6958H37.3354V60.5228H36.3354ZM36.7064 60.2127C35.3514 60.5747 33.2834 60.7232 31.2425 60.7128C29.2043 60.7023 27.2618 60.5338 26.1689 60.2908L25.9518 61.267C27.1463 61.5325 29.1704 61.7021 31.2374 61.7127C33.3017 61.7234 35.4776 61.5761 36.9645 61.1789L36.7064 60.2127ZM26.5603 60.7789V59.6727H25.5603V60.7789H26.5603ZM26.0603 60.1727H26.0622V59.1727H26.0603V60.1727ZM25.5622 35.3929V59.6727H26.5622V35.3929H25.5622ZM20.218 35.8929H26.0622V34.8929H20.218V35.8929ZM19.718 27.0163V35.3929H20.718V27.0163H19.718ZM26.0622 26.5163H20.218V27.5163H26.0622V26.5163ZM25.5622 21.4275V27.0163H26.5622V21.4275H25.5622ZM37.8933 9.76306C33.3793 9.76306 30.2616 10.8049 28.2822 12.8523C26.3056 14.8969 25.5622 17.8442 25.5622 21.4275H26.5622C26.5622 17.9562 27.2863 15.3212 29.0012 13.5473C30.7134 11.7762 33.5113 10.7631 37.8933 10.7631V9.76306ZM45.1531 9.76306H37.8933V10.7631H45.1531V9.76306ZM45.6531 18.6397V10.2631H44.6531V18.6397H45.6531ZM40.8024 19.1397H45.1531V18.1397H40.8024V19.1397ZM37.3414 22.0296C37.3414 20.9023 37.4766 20.2492 37.878 19.8411C38.283 19.4294 39.0878 19.1397 40.8024 19.1397V18.1397C39.0495 18.1397 37.8738 18.4193 37.1651 19.1398C36.4529 19.8638 36.3414 20.9057 36.3414 22.0296H37.3414Z" fill="url(#paint3_linear_3_282)" mask="url(#path-5-inside-1_3_282)"/>
<defs>
<filter id="filter0_f_3_282" x="0" y="0" width="62.4417" height="62.4415" filterUnits="userSpaceOnUse" color-interpolation-filters="sRGB">
<feFlood flood-opacity="0" result="BackgroundImageFix"/>
<feBlend mode="normal" in="SourceGraphic" in2="BackgroundImageFix" result="shape"/>
<feGaussianBlur stdDeviation="1" result="effect1_foregroundBlur_3_282"/>
</filter>
<filter id="filter1_f_3_282" x="12.1011" y="6.04224" width="36.4934" height="57.9221" filterUnits="userSpaceOnUse" color-interpolation-filters="sRGB">
<feFlood flood-opacity="0" result="BackgroundImageFix"/>
<feBlend mode="normal" in="SourceGraphic" in2="BackgroundImageFix" result="shape"/>
<feGaussianBlur stdDeviation="2.5" result="effect1_foregroundBlur_3_282"/>
</filter>
<linearGradient id="paint0_linear_3_282" x1="30.0519" y1="59.6624" x2="31.2207" y2="4.53252" gradientUnits="userSpaceOnUse">
<stop stop-color="#004DAE"/>
<stop offset="0.869762" stop-color="#4497FF"/>
</linearGradient>
<linearGradient id="paint1_linear_3_282" x1="31.2208" y1="8.42857" x2="31.2208" y2="54.013" gradientUnits="userSpaceOnUse">
<stop stop-color="#1778F2"/>
<stop offset="1" stop-color="#1778F2" stop-opacity="0.62"/>
</linearGradient>
<linearGradient id="paint2_linear_3_282" x1="31.2208" y1="2" x2="31.2208" y2="60.4416" gradientUnits="userSpaceOnUse">
<stop stop-color="#7CB4FB"/>
<stop offset="1" stop-color="#0B6280"/>
</linearGradient>
<linearGradient id="paint3_linear_3_282" x1="32.6856" y1="10.2631" x2="32.6856" y2="61.2133" gradientUnits="userSpaceOnUse">
<stop stop-color="white"/>
<stop offset="1" stop-color="white" stop-opacity="0"/>
</linearGradient>
</defs>
</svg>
