<svg width="69" height="69" viewBox="0 0 69 69" fill="none" xmlns="http://www.w3.org/2000/svg">
<rect x="4.2207" y="4.22083" width="60" height="60" rx="30" fill="url(#paint0_linear_3_290)"/>
<g filter="url(#filter0_f_3_290)">
<rect x="5" y="5" width="58.4416" height="58.4416" rx="29.2208" fill="url(#paint1_linear_3_290)"/>
<rect x="5.25" y="5.25" width="57.9416" height="57.9416" rx="28.9708" stroke="url(#paint2_linear_3_290)" stroke-width="0.5"/>
</g>
<g filter="url(#filter1_f_3_290)">
<path fill-rule="evenodd" clip-rule="evenodd" d="M23.7011 22.3377C23.7011 24.3818 21.9568 26.0389 19.805 26.0389C17.6533 26.0389 15.9089 24.3818 15.9089 22.3377C15.9089 20.2935 17.6533 18.6364 19.805 18.6364C21.9568 18.6364 23.7011 20.2935 23.7011 22.3377ZM15.9089 52.1428H23.0889V27.987H15.9089V52.1428ZM42.2355 52.1428H49.4154V38.502C49.4154 35.2386 48.6567 32.9148 47.1322 31.1828C45.6172 29.4533 43.6332 28.7648 41.18 28.7648C37.9538 28.7648 35.6012 30.4026 34.1293 32.8182H33.9809L33.5429 27.987H27.8755C27.9713 30.4026 27.8755 52.1428 27.8755 52.1428H35.0555V37.0165C35.649 35.1395 36.8313 34.2023 38.6957 34.2023C41.0484 34.2023 42.2355 35.8763 42.2355 39.2388V52.1428Z" fill="#0B4C8C"/>
</g>
<mask id="path-5-inside-1_3_290" fill="white">
<path fill-rule="evenodd" clip-rule="evenodd" d="M26.8181 20.3897C26.8181 22.4338 25.0737 24.091 22.922 24.091C20.7702 24.091 19.0259 22.4338 19.0259 20.3897C19.0259 18.3455 20.7702 16.6884 22.922 16.6884C25.0737 16.6884 26.8181 18.3455 26.8181 20.3897ZM19.0259 50.1948H26.2058V26.039H19.0259V50.1948ZM45.3524 50.1948H52.5324V36.554C52.5324 33.2906 51.7737 30.9668 50.2491 29.2348C48.7342 27.5053 46.7501 26.8168 44.297 26.8168C41.0708 26.8168 38.7181 28.4546 37.2462 30.8702H37.0978L36.6599 26.039H30.9925C31.0882 28.4546 30.9925 50.1948 30.9925 50.1948H38.1724V35.0685C38.766 33.1915 39.9483 32.2543 41.8127 32.2543C44.1653 32.2543 45.3524 33.9283 45.3524 37.2908V50.1948Z"/>
</mask>
<path fill-rule="evenodd" clip-rule="evenodd" d="M26.8181 20.3897C26.8181 22.4338 25.0737 24.091 22.922 24.091C20.7702 24.091 19.0259 22.4338 19.0259 20.3897C19.0259 18.3455 20.7702 16.6884 22.922 16.6884C25.0737 16.6884 26.8181 18.3455 26.8181 20.3897ZM19.0259 50.1948H26.2058V26.039H19.0259V50.1948ZM45.3524 50.1948H52.5324V36.554C52.5324 33.2906 51.7737 30.9668 50.2491 29.2348C48.7342 27.5053 46.7501 26.8168 44.297 26.8168C41.0708 26.8168 38.7181 28.4546 37.2462 30.8702H37.0978L36.6599 26.039H30.9925C31.0882 28.4546 30.9925 50.1948 30.9925 50.1948H38.1724V35.0685C38.766 33.1915 39.9483 32.2543 41.8127 32.2543C44.1653 32.2543 45.3524 33.9283 45.3524 37.2908V50.1948Z" fill="white" fill-opacity="0.9"/>
<path d="M26.2058 50.1948V50.6948H26.7058V50.1948H26.2058ZM19.0259 50.1948H18.5259V50.6948H19.0259V50.1948ZM26.2058 26.039H26.7058V25.539H26.2058V26.039ZM19.0259 26.039V25.539H18.5259V26.039H19.0259ZM52.5324 50.1948V50.6948H53.0324V50.1948H52.5324ZM45.3524 50.1948H44.8524V50.6948H45.3524V50.1948ZM50.2491 29.2348L49.873 29.5643L49.8738 29.5652L50.2491 29.2348ZM37.2462 30.8702V31.3702H37.5271L37.6732 31.1303L37.2462 30.8702ZM37.0978 30.8702L36.5999 30.9153L36.6411 31.3702H37.0978V30.8702ZM36.6599 26.039L37.1578 25.9939L37.1166 25.539H36.6599V26.039ZM30.9925 26.039V25.539H30.4723L30.4929 26.0588L30.9925 26.039ZM30.9925 50.1948L30.4925 50.1926L30.4903 50.6948H30.9925V50.1948ZM38.1724 50.1948V50.6948H38.6724V50.1948H38.1724ZM38.1724 35.0685L37.6957 34.9177L37.6724 34.9913V35.0685H38.1724ZM22.922 24.591C25.3254 24.591 27.3181 22.7338 27.3181 20.3897H26.3181C26.3181 22.1338 24.8221 23.591 22.922 23.591V24.591ZM18.5259 20.3897C18.5259 22.7338 20.5186 24.591 22.922 24.591V23.591C21.0219 23.591 19.5259 22.1338 19.5259 20.3897H18.5259ZM22.922 16.1884C20.5186 16.1884 18.5259 18.0455 18.5259 20.3897H19.5259C19.5259 18.6455 21.0219 17.1884 22.922 17.1884V16.1884ZM27.3181 20.3897C27.3181 18.0455 25.3254 16.1884 22.922 16.1884V17.1884C24.8221 17.1884 26.3181 18.6455 26.3181 20.3897H27.3181ZM26.2058 49.6948H19.0259V50.6948H26.2058V49.6948ZM25.7058 26.039V50.1948H26.7058V26.039H25.7058ZM19.0259 26.539H26.2058V25.539H19.0259V26.539ZM19.5259 50.1948V26.039H18.5259V50.1948H19.5259ZM52.5324 49.6948H45.3524V50.6948H52.5324V49.6948ZM52.0324 36.554V50.1948H53.0324V36.554H52.0324ZM49.8738 29.5652C51.2939 31.1785 52.0324 33.3699 52.0324 36.554H53.0324C53.0324 33.2113 52.2535 30.7551 50.6245 28.9045L49.8738 29.5652ZM44.297 27.3168C46.6468 27.3168 48.4769 27.9704 49.873 29.5643L50.6253 28.9054C48.9914 27.0401 46.8535 26.3168 44.297 26.3168V27.3168ZM37.6732 31.1303C39.0676 28.8419 41.2693 27.3168 44.297 27.3168V26.3168C40.8722 26.3168 38.3686 28.0673 36.8193 30.61L37.6732 31.1303ZM37.0978 31.3702H37.2462V30.3702H37.0978V31.3702ZM36.1619 26.0841L36.5999 30.9153L37.5958 30.825L37.1578 25.9939L36.1619 26.0841ZM30.9925 26.539H36.6599V25.539H30.9925V26.539ZM30.9925 50.1948C31.4925 50.197 31.4925 50.197 31.4925 50.1968C31.4925 50.1966 31.4925 50.1964 31.4925 50.196C31.4925 50.1954 31.4925 50.1944 31.4925 50.1931C31.4925 50.1904 31.4925 50.1865 31.4925 50.1813C31.4926 50.1708 31.4927 50.1552 31.4928 50.1346C31.4929 50.0933 31.4932 50.0321 31.4935 49.9522C31.4942 49.7924 31.4952 49.5576 31.4964 49.258C31.4988 48.6588 31.5022 47.8 31.5059 46.762C31.5134 44.6859 31.5224 41.8927 31.5284 39.0238C31.5403 33.2957 31.5405 27.2406 31.4921 26.0192L30.4929 26.0588C30.5402 27.253 30.5404 33.2759 30.5284 39.0217C30.5224 41.8899 30.5134 44.6826 30.5059 46.7584C30.5022 47.7962 30.4988 48.6548 30.4964 49.2539C30.4952 49.5535 30.4942 49.7882 30.4935 49.948C30.4932 50.0279 30.4929 50.089 30.4928 50.1302C30.4927 50.1508 30.4926 50.1664 30.4926 50.1769C30.4925 50.1821 30.4925 50.1861 30.4925 50.1887C30.4925 50.19 30.4925 50.191 30.4925 50.1917C30.4925 50.192 30.4925 50.1922 30.4925 50.1924C30.4925 50.1926 30.4925 50.1926 30.9925 50.1948ZM38.1724 49.6948H30.9925V50.6948H38.1724V49.6948ZM37.6724 35.0685V50.1948H38.6724V35.0685H37.6724ZM41.8127 31.7543C40.7937 31.7543 39.9171 32.0121 39.209 32.5629C38.5045 33.1109 38.0136 33.9126 37.6957 34.9177L38.6492 35.2192C38.9249 34.3474 39.3218 33.7421 39.823 33.3522C40.3205 32.9652 40.9672 32.7543 41.8127 32.7543V31.7543ZM45.8524 37.2908C45.8524 35.5659 45.5507 34.1849 44.8736 33.2237C44.174 32.2305 43.1236 31.7543 41.8127 31.7543V32.7543C42.8544 32.7543 43.5739 33.1151 44.056 33.7995C44.5606 34.5159 44.8524 35.6532 44.8524 37.2908H45.8524ZM45.8524 50.1948V37.2908H44.8524V50.1948H45.8524Z" fill="url(#paint3_linear_3_290)" mask="url(#path-5-inside-1_3_290)"/>
<defs>
<filter id="filter0_f_3_290" x="0" y="0" width="68.4417" height="68.4415" filterUnits="userSpaceOnUse" color-interpolation-filters="sRGB">
<feFlood flood-opacity="0" result="BackgroundImageFix"/>
<feBlend mode="normal" in="SourceGraphic" in2="BackgroundImageFix" result="shape"/>
<feGaussianBlur stdDeviation="2.5" result="effect1_foregroundBlur_3_290"/>
</filter>
<filter id="filter1_f_3_290" x="5.90894" y="8.63635" width="53.5066" height="53.5065" filterUnits="userSpaceOnUse" color-interpolation-filters="sRGB">
<feFlood flood-opacity="0" result="BackgroundImageFix"/>
<feBlend mode="normal" in="SourceGraphic" in2="BackgroundImageFix" result="shape"/>
<feGaussianBlur stdDeviation="5" result="effect1_foregroundBlur_3_290"/>
</filter>
<linearGradient id="paint0_linear_3_290" x1="33.0519" y1="62.6624" x2="34.2207" y2="7.53252" gradientUnits="userSpaceOnUse">
<stop stop-color="#004081"/>
<stop offset="1" stop-color="#5BA9F8"/>
</linearGradient>
<linearGradient id="paint1_linear_3_290" x1="34.2208" y1="11.4286" x2="34.2208" y2="57.013" gradientUnits="userSpaceOnUse">
<stop stop-color="#0A66C2" stop-opacity="0.56"/>
<stop offset="1" stop-color="#0A66C2"/>
</linearGradient>
<linearGradient id="paint2_linear_3_290" x1="34.2208" y1="5" x2="34.2208" y2="63.4416" gradientUnits="userSpaceOnUse">
<stop stop-color="#59ACFF"/>
<stop offset="1" stop-color="#013162"/>
</linearGradient>
<linearGradient id="paint3_linear_3_290" x1="35.7791" y1="16.6884" x2="35.7791" y2="50.1948" gradientUnits="userSpaceOnUse">
<stop stop-color="white"/>
<stop offset="1" stop-color="white" stop-opacity="0"/>
</linearGradient>
</defs>
</svg>
