<svg width="69" height="69" viewBox="0 0 69 69" fill="none" xmlns="http://www.w3.org/2000/svg">
<rect x="4.2207" y="4.22083" width="60" height="60" rx="30" fill="url(#paint0_linear_3_300)"/>
<g filter="url(#filter0_f_3_300)">
<rect x="5" y="5" width="58.4416" height="58.4416" rx="29.2208" fill="url(#paint1_linear_3_300)"/>
<rect x="5.25" y="5.25" width="57.9416" height="57.9416" rx="28.9708" stroke="url(#paint2_linear_3_300)" stroke-width="0.5"/>
</g>
<g filter="url(#filter1_f_3_300)">
<path d="M49.0645 27.2054C48.6568 25.6727 47.4555 24.4658 45.93 24.0562C43.1648 23.3118 32.0779 23.3118 32.0779 23.3118C32.0779 23.3118 20.9909 23.3118 18.2257 24.0562C16.7005 24.4658 15.499 25.6727 15.0913 27.2054C14.3506 29.9834 14.3506 35.7795 14.3506 35.7795C14.3506 35.7795 14.3506 41.5755 15.0913 44.3532C15.499 45.8859 16.7005 47.0931 18.2257 47.5027C20.9909 48.2468 32.0779 48.2468 32.0779 48.2468C32.0779 48.2468 43.1648 48.2468 45.93 47.5027C47.4555 47.0931 48.6568 45.8859 49.0645 44.3532C49.8051 41.5755 49.8051 35.7795 49.8051 35.7795C49.8051 35.7795 49.8051 29.9834 49.0645 27.2054ZM28.5322 41.1228V30.4361L37.7434 35.7795L28.5322 41.1228Z" fill="#9B0000"/>
</g>
<path d="M34.1501 22.0033C34.2318 22.0035 34.3525 22.0035 34.5066 22.0043C34.8147 22.0057 35.258 22.0092 35.7986 22.015C36.8802 22.0266 38.3513 22.0496 39.908 22.0961C41.4649 22.1425 43.1061 22.2125 44.5291 22.3168C45.9591 22.4216 47.1481 22.5596 47.8132 22.7386V22.7396C49.162 23.1019 50.2433 24.1252 50.6902 25.4437L50.7712 25.7113C51.134 27.072 51.3183 29.1915 51.4109 30.9886C51.457 31.8834 51.4804 32.6919 51.4919 33.2767C51.4977 33.5691 51.5003 33.806 51.5017 33.9691C51.5024 34.0505 51.5025 34.1139 51.5027 34.1566V34.2855C51.5025 34.3282 51.5024 34.3916 51.5017 34.473C51.5003 34.6361 51.4977 34.873 51.4919 35.1654C51.4804 35.7503 51.457 36.5588 51.4109 37.4535C51.3183 39.2503 51.1339 41.3693 50.7712 42.7299V42.7308C50.3864 44.1774 49.2518 45.3162 47.8132 45.7025C47.1481 45.8815 45.9591 46.0206 44.5291 46.1254C43.1061 46.2296 41.4649 46.2986 39.908 46.3451C38.3513 46.3915 36.8802 46.4155 35.7986 46.4271C35.258 46.4329 34.8147 46.4354 34.5066 46.4369C34.3525 46.4376 34.2318 46.4377 34.1501 46.4379C34.1095 46.438 34.0783 46.4378 34.0574 46.4379C34.047 46.4379 34.0392 46.4388 34.0339 46.4388H34.0183C34.013 46.4388 34.0044 46.4379 33.9939 46.4379C33.9729 46.4378 33.9417 46.438 33.9011 46.4379C33.8195 46.4377 33.6994 46.4376 33.5457 46.4369C33.2375 46.4354 32.7934 46.4329 32.2527 46.4271C31.1712 46.4155 29.7007 46.3915 28.1443 46.3451C26.5873 46.2986 24.9463 46.2296 23.5232 46.1254C22.0932 46.0206 20.9043 45.8815 20.239 45.7025C18.8007 45.3163 17.6659 44.1774 17.281 42.7308V42.7299C16.9183 41.3693 16.733 39.2504 16.6404 37.4535C16.5943 36.5588 16.5718 35.7503 16.5603 35.1654C16.5545 34.873 16.551 34.6361 16.5496 34.473C16.5488 34.3916 16.5488 34.3282 16.5486 34.2855V34.1566C16.5488 34.1139 16.5488 34.0505 16.5496 33.9691C16.551 33.806 16.5545 33.5691 16.5603 33.2767C16.5718 32.6919 16.5943 31.8834 16.6404 30.9886C16.7272 29.3038 16.895 27.3356 17.2146 25.975L17.281 25.7113C17.6658 24.2646 18.8006 23.126 20.239 22.7396V22.7386C20.9043 22.5596 22.0933 22.4216 23.5232 22.3168C24.9463 22.2125 26.5873 22.1425 28.1443 22.0961C29.7007 22.0496 31.1712 22.0266 32.2527 22.015C32.7934 22.0092 33.2375 22.0057 33.5457 22.0043C33.6994 22.0035 33.8195 22.0035 33.9011 22.0033H34.1501ZM30.2302 39.9984L30.6052 39.7806L39.8171 34.4369L40.1892 34.2211L39.8171 34.0052L30.6052 28.6615L30.2302 28.4437V39.9984Z" fill="white" fill-opacity="0.9" stroke="url(#paint3_linear_3_300)" stroke-width="0.5"/>
<defs>
<filter id="filter0_f_3_300" x="0" y="0" width="68.4417" height="68.4415" filterUnits="userSpaceOnUse" color-interpolation-filters="sRGB">
<feFlood flood-opacity="0" result="BackgroundImageFix"/>
<feBlend mode="normal" in="SourceGraphic" in2="BackgroundImageFix" result="shape"/>
<feGaussianBlur stdDeviation="2.5" result="effect1_foregroundBlur_3_300"/>
</filter>
<filter id="filter1_f_3_300" x="4.35059" y="13.3118" width="55.4546" height="44.9351" filterUnits="userSpaceOnUse" color-interpolation-filters="sRGB">
<feFlood flood-opacity="0" result="BackgroundImageFix"/>
<feBlend mode="normal" in="SourceGraphic" in2="BackgroundImageFix" result="shape"/>
<feGaussianBlur stdDeviation="5" result="effect1_foregroundBlur_3_300"/>
</filter>
<linearGradient id="paint0_linear_3_300" x1="33.0519" y1="62.6624" x2="34.2207" y2="7.53252" gradientUnits="userSpaceOnUse">
<stop stop-color="#A70000"/>
<stop offset="1" stop-color="#FF9191"/>
</linearGradient>
<linearGradient id="paint1_linear_3_300" x1="34.2208" y1="11.4286" x2="34.2208" y2="57.013" gradientUnits="userSpaceOnUse">
<stop stop-color="#FF0000" stop-opacity="0.67"/>
<stop offset="1" stop-color="#FF0000"/>
</linearGradient>
<linearGradient id="paint2_linear_3_300" x1="34.2208" y1="5" x2="34.2208" y2="63.4416" gradientUnits="userSpaceOnUse">
<stop stop-color="#FF8888"/>
<stop offset="1" stop-color="#D60000"/>
</linearGradient>
<linearGradient id="paint3_linear_3_300" x1="34.0259" y1="21.7533" x2="34.0259" y2="46.6884" gradientUnits="userSpaceOnUse">
<stop stop-color="white"/>
<stop offset="1" stop-color="white" stop-opacity="0"/>
</linearGradient>
</defs>
</svg>
